<mxfile host="app.diagrams.net" modified="2023-11-15T22:45:22.850Z" agent="Mozilla/5.0 (Windows NT 10.0; Win64; x64) AppleWebKit/537.36 (KHTML, like Gecko) Chrome/119.0.0.0 Safari/537.36" etag="MlJ7FSIwNz9ZDnM_F3wB" version="21.7.4" type="device">
  <diagram id="C5RBs43oDa-KdzZeNtuy" name="Page-1">
    <mxGraphModel dx="794" dy="464" grid="1" gridSize="10" guides="1" tooltips="1" connect="1" arrows="1" fold="1" page="1" pageScale="1" pageWidth="827" pageHeight="1169" math="0" shadow="0">
      <root>
        <mxCell id="WIyWlLk6GJQsqaUBKTNV-0" />
        <mxCell id="WIyWlLk6GJQsqaUBKTNV-1" parent="WIyWlLk6GJQsqaUBKTNV-0" />
        <mxCell id="WIyWlLk6GJQsqaUBKTNV-2" value="" style="rounded=0;html=1;jettySize=auto;orthogonalLoop=1;fontSize=11;endArrow=block;endFill=0;endSize=8;strokeWidth=1;shadow=0;labelBackgroundColor=none;edgeStyle=orthogonalEdgeStyle;" parent="WIyWlLk6GJQsqaUBKTNV-1" source="WIyWlLk6GJQsqaUBKTNV-3" edge="1">
          <mxGeometry relative="1" as="geometry">
            <mxPoint x="220" y="80" as="targetPoint" />
          </mxGeometry>
        </mxCell>
        <mxCell id="WIyWlLk6GJQsqaUBKTNV-3" value="Start" style="rounded=1;whiteSpace=wrap;html=1;fontSize=12;glass=0;strokeWidth=1;shadow=0;" parent="WIyWlLk6GJQsqaUBKTNV-1" vertex="1">
          <mxGeometry x="160.5" y="10" width="120" height="40" as="geometry" />
        </mxCell>
        <mxCell id="_YHEuX3XCHLoAj_idzYY-0" value="Open chrome browser" style="rounded=0;whiteSpace=wrap;html=1;" parent="WIyWlLk6GJQsqaUBKTNV-1" vertex="1">
          <mxGeometry x="157" y="80" width="120" height="50" as="geometry" />
        </mxCell>
        <mxCell id="_YHEuX3XCHLoAj_idzYY-1" value="" style="endArrow=none;dashed=1;html=1;rounded=0;" parent="WIyWlLk6GJQsqaUBKTNV-1" edge="1">
          <mxGeometry width="50" height="50" relative="1" as="geometry">
            <mxPoint x="160" y="133" as="sourcePoint" />
            <mxPoint x="280" y="133" as="targetPoint" />
            <Array as="points">
              <mxPoint x="230" y="133" />
              <mxPoint x="280" y="133" />
            </Array>
          </mxGeometry>
        </mxCell>
        <mxCell id="_YHEuX3XCHLoAj_idzYY-2" value="" style="endArrow=none;dashed=1;html=1;rounded=0;" parent="WIyWlLk6GJQsqaUBKTNV-1" edge="1">
          <mxGeometry width="50" height="50" relative="1" as="geometry">
            <mxPoint x="170" y="150" as="sourcePoint" />
            <mxPoint x="280" y="150" as="targetPoint" />
            <Array as="points">
              <mxPoint x="160" y="150" />
              <mxPoint x="180" y="150" />
              <mxPoint x="240" y="150" />
              <mxPoint x="280" y="150" />
            </Array>
          </mxGeometry>
        </mxCell>
        <mxCell id="_YHEuX3XCHLoAj_idzYY-4" value="" style="endArrow=none;dashed=1;html=1;dashPattern=1 3;strokeWidth=2;rounded=0;" parent="WIyWlLk6GJQsqaUBKTNV-1" edge="1">
          <mxGeometry width="50" height="50" relative="1" as="geometry">
            <mxPoint x="280" y="151" as="sourcePoint" />
            <mxPoint x="280" y="131" as="targetPoint" />
          </mxGeometry>
        </mxCell>
        <mxCell id="_YHEuX3XCHLoAj_idzYY-5" value="" style="endArrow=none;dashed=1;html=1;dashPattern=1 3;strokeWidth=2;rounded=0;" parent="WIyWlLk6GJQsqaUBKTNV-1" edge="1">
          <mxGeometry width="50" height="50" relative="1" as="geometry">
            <mxPoint x="160" y="151" as="sourcePoint" />
            <mxPoint x="160" y="131" as="targetPoint" />
          </mxGeometry>
        </mxCell>
        <mxCell id="_YHEuX3XCHLoAj_idzYY-26" value="Click on the login button" style="rounded=0;whiteSpace=wrap;html=1;" parent="WIyWlLk6GJQsqaUBKTNV-1" vertex="1">
          <mxGeometry x="161" y="423" width="119" height="60" as="geometry" />
        </mxCell>
        <mxCell id="_YHEuX3XCHLoAj_idzYY-27" value="" style="endArrow=none;dashed=1;html=1;rounded=0;" parent="WIyWlLk6GJQsqaUBKTNV-1" edge="1">
          <mxGeometry width="50" height="50" relative="1" as="geometry">
            <mxPoint x="160" y="487" as="sourcePoint" />
            <mxPoint x="280" y="487" as="targetPoint" />
            <Array as="points">
              <mxPoint x="230" y="487" />
              <mxPoint x="280" y="487" />
            </Array>
          </mxGeometry>
        </mxCell>
        <mxCell id="_YHEuX3XCHLoAj_idzYY-28" value="" style="endArrow=none;dashed=1;html=1;rounded=0;" parent="WIyWlLk6GJQsqaUBKTNV-1" edge="1">
          <mxGeometry width="50" height="50" relative="1" as="geometry">
            <mxPoint x="170" y="504" as="sourcePoint" />
            <mxPoint x="280" y="504" as="targetPoint" />
            <Array as="points">
              <mxPoint x="160" y="504" />
              <mxPoint x="180" y="504" />
              <mxPoint x="240" y="504" />
              <mxPoint x="280" y="504" />
            </Array>
          </mxGeometry>
        </mxCell>
        <mxCell id="_YHEuX3XCHLoAj_idzYY-29" value="" style="endArrow=none;dashed=1;html=1;dashPattern=1 3;strokeWidth=2;rounded=0;" parent="WIyWlLk6GJQsqaUBKTNV-1" edge="1">
          <mxGeometry width="50" height="50" relative="1" as="geometry">
            <mxPoint x="280" y="505" as="sourcePoint" />
            <mxPoint x="280" y="485" as="targetPoint" />
          </mxGeometry>
        </mxCell>
        <mxCell id="_YHEuX3XCHLoAj_idzYY-30" value="" style="endArrow=none;dashed=1;html=1;dashPattern=1 3;strokeWidth=2;rounded=0;" parent="WIyWlLk6GJQsqaUBKTNV-1" edge="1">
          <mxGeometry width="50" height="50" relative="1" as="geometry">
            <mxPoint x="160" y="505" as="sourcePoint" />
            <mxPoint x="160" y="485" as="targetPoint" />
          </mxGeometry>
        </mxCell>
        <mxCell id="_YHEuX3XCHLoAj_idzYY-31" value="Chrome browser" style="text;html=1;align=center;verticalAlign=middle;resizable=0;points=[];autosize=1;strokeColor=none;fillColor=none;" parent="WIyWlLk6GJQsqaUBKTNV-1" vertex="1">
          <mxGeometry x="146" y="127" width="110" height="30" as="geometry" />
        </mxCell>
        <mxCell id="_YHEuX3XCHLoAj_idzYY-32" value="opens up the dashboard page" style="rounded=0;whiteSpace=wrap;html=1;" parent="WIyWlLk6GJQsqaUBKTNV-1" vertex="1">
          <mxGeometry x="161" y="535" width="129" height="78" as="geometry" />
        </mxCell>
        <mxCell id="_YHEuX3XCHLoAj_idzYY-33" value="" style="endArrow=none;dashed=1;html=1;rounded=0;" parent="WIyWlLk6GJQsqaUBKTNV-1" edge="1">
          <mxGeometry width="50" height="50" relative="1" as="geometry">
            <mxPoint x="161" y="614" as="sourcePoint" />
            <mxPoint x="281" y="614" as="targetPoint" />
            <Array as="points">
              <mxPoint x="231" y="614" />
              <mxPoint x="281" y="614" />
            </Array>
          </mxGeometry>
        </mxCell>
        <mxCell id="_YHEuX3XCHLoAj_idzYY-34" value="" style="endArrow=none;dashed=1;html=1;rounded=0;" parent="WIyWlLk6GJQsqaUBKTNV-1" edge="1">
          <mxGeometry width="50" height="50" relative="1" as="geometry">
            <mxPoint x="171" y="631" as="sourcePoint" />
            <mxPoint x="281" y="631" as="targetPoint" />
            <Array as="points">
              <mxPoint x="161" y="631" />
              <mxPoint x="181" y="631" />
              <mxPoint x="241" y="631" />
              <mxPoint x="281" y="631" />
            </Array>
          </mxGeometry>
        </mxCell>
        <mxCell id="_YHEuX3XCHLoAj_idzYY-35" value="" style="endArrow=none;dashed=1;html=1;dashPattern=1 3;strokeWidth=2;rounded=0;" parent="WIyWlLk6GJQsqaUBKTNV-1" edge="1">
          <mxGeometry width="50" height="50" relative="1" as="geometry">
            <mxPoint x="281" y="632" as="sourcePoint" />
            <mxPoint x="281" y="612" as="targetPoint" />
          </mxGeometry>
        </mxCell>
        <mxCell id="_YHEuX3XCHLoAj_idzYY-36" value="" style="endArrow=none;dashed=1;html=1;dashPattern=1 3;strokeWidth=2;rounded=0;" parent="WIyWlLk6GJQsqaUBKTNV-1" edge="1">
          <mxGeometry width="50" height="50" relative="1" as="geometry">
            <mxPoint x="161" y="632" as="sourcePoint" />
            <mxPoint x="161" y="612" as="targetPoint" />
          </mxGeometry>
        </mxCell>
        <mxCell id="_YHEuX3XCHLoAj_idzYY-37" value="Click &quot;User options&quot;" style="rounded=0;whiteSpace=wrap;html=1;" parent="WIyWlLk6GJQsqaUBKTNV-1" vertex="1">
          <mxGeometry x="159" y="663" width="120" height="60" as="geometry" />
        </mxCell>
        <mxCell id="_YHEuX3XCHLoAj_idzYY-38" value="" style="endArrow=none;dashed=1;html=1;rounded=0;" parent="WIyWlLk6GJQsqaUBKTNV-1" edge="1">
          <mxGeometry width="50" height="50" relative="1" as="geometry">
            <mxPoint x="160" y="727" as="sourcePoint" />
            <mxPoint x="280" y="727" as="targetPoint" />
            <Array as="points">
              <mxPoint x="230" y="727" />
              <mxPoint x="280" y="727" />
            </Array>
          </mxGeometry>
        </mxCell>
        <mxCell id="_YHEuX3XCHLoAj_idzYY-39" value="" style="endArrow=none;dashed=1;html=1;rounded=0;" parent="WIyWlLk6GJQsqaUBKTNV-1" edge="1">
          <mxGeometry width="50" height="50" relative="1" as="geometry">
            <mxPoint x="170" y="744" as="sourcePoint" />
            <mxPoint x="280" y="744" as="targetPoint" />
            <Array as="points">
              <mxPoint x="160" y="744" />
              <mxPoint x="180" y="744" />
              <mxPoint x="240" y="744" />
              <mxPoint x="280" y="744" />
            </Array>
          </mxGeometry>
        </mxCell>
        <mxCell id="_YHEuX3XCHLoAj_idzYY-40" value="" style="endArrow=none;dashed=1;html=1;dashPattern=1 3;strokeWidth=2;rounded=0;" parent="WIyWlLk6GJQsqaUBKTNV-1" edge="1">
          <mxGeometry width="50" height="50" relative="1" as="geometry">
            <mxPoint x="280" y="745" as="sourcePoint" />
            <mxPoint x="280" y="725" as="targetPoint" />
          </mxGeometry>
        </mxCell>
        <mxCell id="_YHEuX3XCHLoAj_idzYY-41" value="" style="endArrow=none;dashed=1;html=1;dashPattern=1 3;strokeWidth=2;rounded=0;" parent="WIyWlLk6GJQsqaUBKTNV-1" edge="1">
          <mxGeometry width="50" height="50" relative="1" as="geometry">
            <mxPoint x="160" y="745" as="sourcePoint" />
            <mxPoint x="160" y="725" as="targetPoint" />
          </mxGeometry>
        </mxCell>
        <mxCell id="_YHEuX3XCHLoAj_idzYY-47" value="Chrome browser" style="text;whiteSpace=wrap;html=1;" parent="WIyWlLk6GJQsqaUBKTNV-1" vertex="1">
          <mxGeometry x="170" y="483" width="108" height="40" as="geometry" />
        </mxCell>
        <mxCell id="_YHEuX3XCHLoAj_idzYY-48" value="Chrome browser" style="text;whiteSpace=wrap;html=1;" parent="WIyWlLk6GJQsqaUBKTNV-1" vertex="1">
          <mxGeometry x="180" y="609" width="97" height="40" as="geometry" />
        </mxCell>
        <mxCell id="_YHEuX3XCHLoAj_idzYY-49" value="Chrome browser" style="text;whiteSpace=wrap;html=1;" parent="WIyWlLk6GJQsqaUBKTNV-1" vertex="1">
          <mxGeometry x="170" y="723" width="109" height="40" as="geometry" />
        </mxCell>
        <mxCell id="_YHEuX3XCHLoAj_idzYY-72" value="" style="rounded=0;html=1;jettySize=auto;orthogonalLoop=1;fontSize=11;endArrow=block;endFill=0;endSize=8;strokeWidth=1;shadow=0;labelBackgroundColor=none;edgeStyle=orthogonalEdgeStyle;" parent="WIyWlLk6GJQsqaUBKTNV-1" edge="1">
          <mxGeometry relative="1" as="geometry">
            <mxPoint x="222" y="250" as="sourcePoint" />
            <mxPoint x="222" y="292" as="targetPoint" />
          </mxGeometry>
        </mxCell>
        <mxCell id="_YHEuX3XCHLoAj_idzYY-79" value="" style="rounded=0;html=1;jettySize=auto;orthogonalLoop=1;fontSize=11;endArrow=block;endFill=0;endSize=8;strokeWidth=1;shadow=0;labelBackgroundColor=none;edgeStyle=orthogonalEdgeStyle;" parent="WIyWlLk6GJQsqaUBKTNV-1" edge="1">
          <mxGeometry relative="1" as="geometry">
            <mxPoint x="222" y="756" as="sourcePoint" />
            <mxPoint x="222" y="787" as="targetPoint" />
            <Array as="points">
              <mxPoint x="222" y="746" />
              <mxPoint x="222" y="746" />
            </Array>
          </mxGeometry>
        </mxCell>
        <mxCell id="zbdN66aRmhUv04qdOEFZ-3" value="Click &quot;download and support&quot;" style="rounded=0;whiteSpace=wrap;html=1;" parent="WIyWlLk6GJQsqaUBKTNV-1" vertex="1">
          <mxGeometry x="159" y="788" width="120" height="60" as="geometry" />
        </mxCell>
        <mxCell id="zbdN66aRmhUv04qdOEFZ-4" value="" style="endArrow=none;dashed=1;html=1;rounded=0;" parent="WIyWlLk6GJQsqaUBKTNV-1" edge="1">
          <mxGeometry width="50" height="50" relative="1" as="geometry">
            <mxPoint x="159" y="852" as="sourcePoint" />
            <mxPoint x="279" y="852" as="targetPoint" />
            <Array as="points">
              <mxPoint x="229" y="852" />
              <mxPoint x="279" y="852" />
            </Array>
          </mxGeometry>
        </mxCell>
        <mxCell id="zbdN66aRmhUv04qdOEFZ-5" value="" style="endArrow=none;dashed=1;html=1;rounded=0;" parent="WIyWlLk6GJQsqaUBKTNV-1" edge="1">
          <mxGeometry width="50" height="50" relative="1" as="geometry">
            <mxPoint x="169" y="869" as="sourcePoint" />
            <mxPoint x="279" y="869" as="targetPoint" />
            <Array as="points">
              <mxPoint x="159" y="869" />
              <mxPoint x="179" y="869" />
              <mxPoint x="239" y="869" />
              <mxPoint x="279" y="869" />
            </Array>
          </mxGeometry>
        </mxCell>
        <mxCell id="zbdN66aRmhUv04qdOEFZ-6" value="" style="endArrow=none;dashed=1;html=1;dashPattern=1 3;strokeWidth=2;rounded=0;" parent="WIyWlLk6GJQsqaUBKTNV-1" edge="1">
          <mxGeometry width="50" height="50" relative="1" as="geometry">
            <mxPoint x="279" y="870" as="sourcePoint" />
            <mxPoint x="279" y="850" as="targetPoint" />
          </mxGeometry>
        </mxCell>
        <mxCell id="zbdN66aRmhUv04qdOEFZ-7" value="" style="endArrow=none;dashed=1;html=1;dashPattern=1 3;strokeWidth=2;rounded=0;" parent="WIyWlLk6GJQsqaUBKTNV-1" edge="1">
          <mxGeometry width="50" height="50" relative="1" as="geometry">
            <mxPoint x="159" y="870" as="sourcePoint" />
            <mxPoint x="159" y="850" as="targetPoint" />
          </mxGeometry>
        </mxCell>
        <mxCell id="zbdN66aRmhUv04qdOEFZ-14" value="Use the click activity to click the login tab&amp;nbsp;" style="rounded=0;whiteSpace=wrap;html=1;" parent="WIyWlLk6GJQsqaUBKTNV-1" vertex="1">
          <mxGeometry x="160" y="910" width="120" height="60" as="geometry" />
        </mxCell>
        <mxCell id="zbdN66aRmhUv04qdOEFZ-15" value="" style="endArrow=none;dashed=1;html=1;rounded=0;" parent="WIyWlLk6GJQsqaUBKTNV-1" edge="1">
          <mxGeometry width="50" height="50" relative="1" as="geometry">
            <mxPoint x="160" y="974" as="sourcePoint" />
            <mxPoint x="280" y="974" as="targetPoint" />
            <Array as="points">
              <mxPoint x="230" y="974" />
              <mxPoint x="280" y="974" />
            </Array>
          </mxGeometry>
        </mxCell>
        <mxCell id="zbdN66aRmhUv04qdOEFZ-16" value="" style="endArrow=none;dashed=1;html=1;rounded=0;" parent="WIyWlLk6GJQsqaUBKTNV-1" edge="1">
          <mxGeometry width="50" height="50" relative="1" as="geometry">
            <mxPoint x="170" y="991" as="sourcePoint" />
            <mxPoint x="280" y="991" as="targetPoint" />
            <Array as="points">
              <mxPoint x="160" y="991" />
              <mxPoint x="180" y="991" />
              <mxPoint x="240" y="991" />
              <mxPoint x="280" y="991" />
            </Array>
          </mxGeometry>
        </mxCell>
        <mxCell id="zbdN66aRmhUv04qdOEFZ-17" value="" style="endArrow=none;dashed=1;html=1;dashPattern=1 3;strokeWidth=2;rounded=0;" parent="WIyWlLk6GJQsqaUBKTNV-1" edge="1">
          <mxGeometry width="50" height="50" relative="1" as="geometry">
            <mxPoint x="280" y="992" as="sourcePoint" />
            <mxPoint x="280" y="972" as="targetPoint" />
          </mxGeometry>
        </mxCell>
        <mxCell id="zbdN66aRmhUv04qdOEFZ-18" value="" style="endArrow=none;dashed=1;html=1;dashPattern=1 3;strokeWidth=2;rounded=0;" parent="WIyWlLk6GJQsqaUBKTNV-1" edge="1">
          <mxGeometry width="50" height="50" relative="1" as="geometry">
            <mxPoint x="160" y="992" as="sourcePoint" />
            <mxPoint x="160" y="972" as="targetPoint" />
          </mxGeometry>
        </mxCell>
        <mxCell id="zbdN66aRmhUv04qdOEFZ-19" value="" style="rounded=0;html=1;jettySize=auto;orthogonalLoop=1;fontSize=11;endArrow=block;endFill=0;endSize=8;strokeWidth=1;shadow=0;labelBackgroundColor=none;edgeStyle=orthogonalEdgeStyle;" parent="WIyWlLk6GJQsqaUBKTNV-1" edge="1">
          <mxGeometry relative="1" as="geometry">
            <mxPoint x="224" y="878" as="sourcePoint" />
            <mxPoint x="224" y="909" as="targetPoint" />
            <Array as="points">
              <mxPoint x="224" y="868" />
              <mxPoint x="224" y="868" />
            </Array>
          </mxGeometry>
        </mxCell>
        <mxCell id="zbdN66aRmhUv04qdOEFZ-20" value="" style="rounded=0;html=1;jettySize=auto;orthogonalLoop=1;fontSize=11;endArrow=block;endFill=0;endSize=8;strokeWidth=1;shadow=0;labelBackgroundColor=none;edgeStyle=orthogonalEdgeStyle;" parent="WIyWlLk6GJQsqaUBKTNV-1" edge="1">
          <mxGeometry relative="1" as="geometry">
            <mxPoint x="225" y="1000" as="sourcePoint" />
            <mxPoint x="225" y="1031" as="targetPoint" />
            <Array as="points">
              <mxPoint x="225" y="990" />
              <mxPoint x="225" y="990" />
            </Array>
          </mxGeometry>
        </mxCell>
        <mxCell id="zbdN66aRmhUv04qdOEFZ-51" value="Chrome browser" style="text;whiteSpace=wrap;html=1;" parent="WIyWlLk6GJQsqaUBKTNV-1" vertex="1">
          <mxGeometry x="180" y="849" width="110" height="40" as="geometry" />
        </mxCell>
        <mxCell id="zbdN66aRmhUv04qdOEFZ-52" value="Chrome browser" style="text;whiteSpace=wrap;html=1;" parent="WIyWlLk6GJQsqaUBKTNV-1" vertex="1">
          <mxGeometry x="180" y="969" width="114" height="40" as="geometry" />
        </mxCell>
        <mxCell id="CRPaWPTZXYbFd5-qlrQ4-0" value="&lt;span style=&quot;font-size: 11px;&quot;&gt;Are credentials&amp;nbsp; &amp;nbsp; &amp;nbsp;correct?&lt;/span&gt;" style="rhombus;whiteSpace=wrap;html=1;" vertex="1" parent="WIyWlLk6GJQsqaUBKTNV-1">
          <mxGeometry x="162" y="290" width="120" height="100" as="geometry" />
        </mxCell>
        <mxCell id="CRPaWPTZXYbFd5-qlrQ4-1" value="" style="endArrow=classic;html=1;rounded=0;exitX=1;exitY=0.5;exitDx=0;exitDy=0;" edge="1" parent="WIyWlLk6GJQsqaUBKTNV-1" source="CRPaWPTZXYbFd5-qlrQ4-0">
          <mxGeometry width="50" height="50" relative="1" as="geometry">
            <mxPoint x="360" y="390" as="sourcePoint" />
            <mxPoint x="410" y="340" as="targetPoint" />
          </mxGeometry>
        </mxCell>
        <mxCell id="CRPaWPTZXYbFd5-qlrQ4-2" value="" style="endArrow=classic;html=1;rounded=0;exitX=0.5;exitY=1;exitDx=0;exitDy=0;" edge="1" parent="WIyWlLk6GJQsqaUBKTNV-1" source="CRPaWPTZXYbFd5-qlrQ4-0">
          <mxGeometry width="50" height="50" relative="1" as="geometry">
            <mxPoint x="360" y="390" as="sourcePoint" />
            <mxPoint x="222" y="420" as="targetPoint" />
          </mxGeometry>
        </mxCell>
        <mxCell id="CRPaWPTZXYbFd5-qlrQ4-43" value="Yes" style="edgeLabel;html=1;align=center;verticalAlign=middle;resizable=0;points=[];" vertex="1" connectable="0" parent="CRPaWPTZXYbFd5-qlrQ4-2">
          <mxGeometry x="-0.3556" relative="1" as="geometry">
            <mxPoint x="10" as="offset" />
          </mxGeometry>
        </mxCell>
        <mxCell id="CRPaWPTZXYbFd5-qlrQ4-3" value="click on login button" style="rounded=0;whiteSpace=wrap;html=1;" vertex="1" parent="WIyWlLk6GJQsqaUBKTNV-1">
          <mxGeometry x="411" y="310" width="120" height="60" as="geometry" />
        </mxCell>
        <mxCell id="CRPaWPTZXYbFd5-qlrQ4-4" value="" style="endArrow=none;dashed=1;html=1;rounded=0;" edge="1" parent="WIyWlLk6GJQsqaUBKTNV-1">
          <mxGeometry width="50" height="50" relative="1" as="geometry">
            <mxPoint x="411" y="374" as="sourcePoint" />
            <mxPoint x="531" y="374" as="targetPoint" />
            <Array as="points">
              <mxPoint x="481" y="374" />
              <mxPoint x="531" y="374" />
            </Array>
          </mxGeometry>
        </mxCell>
        <mxCell id="CRPaWPTZXYbFd5-qlrQ4-5" value="" style="endArrow=none;dashed=1;html=1;rounded=0;" edge="1" parent="WIyWlLk6GJQsqaUBKTNV-1">
          <mxGeometry width="50" height="50" relative="1" as="geometry">
            <mxPoint x="421" y="391" as="sourcePoint" />
            <mxPoint x="531" y="391" as="targetPoint" />
            <Array as="points">
              <mxPoint x="411" y="391" />
              <mxPoint x="431" y="391" />
              <mxPoint x="491" y="391" />
              <mxPoint x="531" y="391" />
            </Array>
          </mxGeometry>
        </mxCell>
        <mxCell id="CRPaWPTZXYbFd5-qlrQ4-6" value="" style="endArrow=none;dashed=1;html=1;dashPattern=1 3;strokeWidth=2;rounded=0;" edge="1" parent="WIyWlLk6GJQsqaUBKTNV-1">
          <mxGeometry width="50" height="50" relative="1" as="geometry">
            <mxPoint x="531" y="392" as="sourcePoint" />
            <mxPoint x="531" y="372" as="targetPoint" />
          </mxGeometry>
        </mxCell>
        <mxCell id="CRPaWPTZXYbFd5-qlrQ4-7" value="" style="endArrow=none;dashed=1;html=1;dashPattern=1 3;strokeWidth=2;rounded=0;" edge="1" parent="WIyWlLk6GJQsqaUBKTNV-1">
          <mxGeometry width="50" height="50" relative="1" as="geometry">
            <mxPoint x="411" y="392" as="sourcePoint" />
            <mxPoint x="411" y="372" as="targetPoint" />
          </mxGeometry>
        </mxCell>
        <mxCell id="CRPaWPTZXYbFd5-qlrQ4-8" value="Populate a message &quot;These credentials do not match our records&quot;" style="rounded=0;whiteSpace=wrap;html=1;" vertex="1" parent="WIyWlLk6GJQsqaUBKTNV-1">
          <mxGeometry x="412" y="429" width="120" height="60" as="geometry" />
        </mxCell>
        <mxCell id="CRPaWPTZXYbFd5-qlrQ4-9" value="" style="endArrow=none;dashed=1;html=1;rounded=0;" edge="1" parent="WIyWlLk6GJQsqaUBKTNV-1">
          <mxGeometry width="50" height="50" relative="1" as="geometry">
            <mxPoint x="412" y="493" as="sourcePoint" />
            <mxPoint x="532" y="493" as="targetPoint" />
            <Array as="points">
              <mxPoint x="482" y="493" />
              <mxPoint x="532" y="493" />
            </Array>
          </mxGeometry>
        </mxCell>
        <mxCell id="CRPaWPTZXYbFd5-qlrQ4-10" value="" style="endArrow=none;dashed=1;html=1;rounded=0;" edge="1" parent="WIyWlLk6GJQsqaUBKTNV-1">
          <mxGeometry width="50" height="50" relative="1" as="geometry">
            <mxPoint x="422" y="510" as="sourcePoint" />
            <mxPoint x="532" y="510" as="targetPoint" />
            <Array as="points">
              <mxPoint x="412" y="510" />
              <mxPoint x="432" y="510" />
              <mxPoint x="492" y="510" />
              <mxPoint x="532" y="510" />
            </Array>
          </mxGeometry>
        </mxCell>
        <mxCell id="CRPaWPTZXYbFd5-qlrQ4-11" value="" style="endArrow=none;dashed=1;html=1;dashPattern=1 3;strokeWidth=2;rounded=0;" edge="1" parent="WIyWlLk6GJQsqaUBKTNV-1">
          <mxGeometry width="50" height="50" relative="1" as="geometry">
            <mxPoint x="532" y="511" as="sourcePoint" />
            <mxPoint x="532" y="491" as="targetPoint" />
          </mxGeometry>
        </mxCell>
        <mxCell id="CRPaWPTZXYbFd5-qlrQ4-12" value="" style="endArrow=none;dashed=1;html=1;dashPattern=1 3;strokeWidth=2;rounded=0;" edge="1" parent="WIyWlLk6GJQsqaUBKTNV-1">
          <mxGeometry width="50" height="50" relative="1" as="geometry">
            <mxPoint x="412" y="511" as="sourcePoint" />
            <mxPoint x="412" y="491" as="targetPoint" />
          </mxGeometry>
        </mxCell>
        <mxCell id="CRPaWPTZXYbFd5-qlrQ4-18" value="Chrome browser" style="text;whiteSpace=wrap;html=1;" vertex="1" parent="WIyWlLk6GJQsqaUBKTNV-1">
          <mxGeometry x="420" y="370" width="109" height="40" as="geometry" />
        </mxCell>
        <mxCell id="CRPaWPTZXYbFd5-qlrQ4-19" value="Chrome browser" style="text;whiteSpace=wrap;html=1;" vertex="1" parent="WIyWlLk6GJQsqaUBKTNV-1">
          <mxGeometry x="420" y="489" width="108" height="40" as="geometry" />
        </mxCell>
        <mxCell id="CRPaWPTZXYbFd5-qlrQ4-21" value="" style="rounded=0;html=1;jettySize=auto;orthogonalLoop=1;fontSize=11;endArrow=block;endFill=0;endSize=8;strokeWidth=1;shadow=0;labelBackgroundColor=none;edgeStyle=orthogonalEdgeStyle;" edge="1" parent="WIyWlLk6GJQsqaUBKTNV-1">
          <mxGeometry relative="1" as="geometry">
            <mxPoint x="474" y="400" as="sourcePoint" />
            <mxPoint x="474" y="430" as="targetPoint" />
            <Array as="points">
              <mxPoint x="474" y="390" />
              <mxPoint x="474" y="390" />
            </Array>
          </mxGeometry>
        </mxCell>
        <mxCell id="CRPaWPTZXYbFd5-qlrQ4-22" value="" style="rounded=0;html=1;jettySize=auto;orthogonalLoop=1;fontSize=11;endArrow=block;endFill=0;endSize=8;strokeWidth=1;shadow=0;labelBackgroundColor=none;edgeStyle=orthogonalEdgeStyle;entryX=0.387;entryY=1.2;entryDx=0;entryDy=0;entryPerimeter=0;" edge="1" parent="WIyWlLk6GJQsqaUBKTNV-1" target="CRPaWPTZXYbFd5-qlrQ4-142">
          <mxGeometry relative="1" as="geometry">
            <mxPoint x="474" y="519" as="sourcePoint" />
            <mxPoint x="480" y="760" as="targetPoint" />
            <Array as="points">
              <mxPoint x="474" y="1870" />
            </Array>
          </mxGeometry>
        </mxCell>
        <mxCell id="CRPaWPTZXYbFd5-qlrQ4-44" value="No" style="text;html=1;align=center;verticalAlign=middle;resizable=0;points=[];autosize=1;strokeColor=none;fillColor=none;" vertex="1" parent="WIyWlLk6GJQsqaUBKTNV-1">
          <mxGeometry x="310" y="318" width="40" height="30" as="geometry" />
        </mxCell>
        <mxCell id="CRPaWPTZXYbFd5-qlrQ4-90" value="" style="endArrow=classic;html=1;rounded=0;exitX=0.5;exitY=1;exitDx=0;exitDy=0;" edge="1" parent="WIyWlLk6GJQsqaUBKTNV-1">
          <mxGeometry width="50" height="50" relative="1" as="geometry">
            <mxPoint x="221" y="505" as="sourcePoint" />
            <mxPoint x="221" y="535" as="targetPoint" />
          </mxGeometry>
        </mxCell>
        <mxCell id="CRPaWPTZXYbFd5-qlrQ4-92" value="" style="endArrow=classic;html=1;rounded=0;exitX=0.5;exitY=1;exitDx=0;exitDy=0;" edge="1" parent="WIyWlLk6GJQsqaUBKTNV-1">
          <mxGeometry width="50" height="50" relative="1" as="geometry">
            <mxPoint x="223" y="632" as="sourcePoint" />
            <mxPoint x="223" y="662" as="targetPoint" />
          </mxGeometry>
        </mxCell>
        <mxCell id="CRPaWPTZXYbFd5-qlrQ4-93" value="Yes" style="edgeLabel;html=1;align=center;verticalAlign=middle;resizable=0;points=[];" vertex="1" connectable="0" parent="CRPaWPTZXYbFd5-qlrQ4-92">
          <mxGeometry x="-0.3556" relative="1" as="geometry">
            <mxPoint x="10" as="offset" />
          </mxGeometry>
        </mxCell>
        <mxCell id="CRPaWPTZXYbFd5-qlrQ4-94" value="Open the &quot;download client and Support page&quot;" style="rounded=0;whiteSpace=wrap;html=1;" vertex="1" parent="WIyWlLk6GJQsqaUBKTNV-1">
          <mxGeometry x="156" y="1032" width="119" height="60" as="geometry" />
        </mxCell>
        <mxCell id="CRPaWPTZXYbFd5-qlrQ4-95" value="" style="endArrow=none;dashed=1;html=1;rounded=0;" edge="1" parent="WIyWlLk6GJQsqaUBKTNV-1">
          <mxGeometry width="50" height="50" relative="1" as="geometry">
            <mxPoint x="155" y="1096" as="sourcePoint" />
            <mxPoint x="275" y="1096" as="targetPoint" />
            <Array as="points">
              <mxPoint x="225" y="1096" />
              <mxPoint x="275" y="1096" />
            </Array>
          </mxGeometry>
        </mxCell>
        <mxCell id="CRPaWPTZXYbFd5-qlrQ4-96" value="" style="endArrow=none;dashed=1;html=1;rounded=0;" edge="1" parent="WIyWlLk6GJQsqaUBKTNV-1">
          <mxGeometry width="50" height="50" relative="1" as="geometry">
            <mxPoint x="165" y="1113" as="sourcePoint" />
            <mxPoint x="275" y="1113" as="targetPoint" />
            <Array as="points">
              <mxPoint x="155" y="1113" />
              <mxPoint x="175" y="1113" />
              <mxPoint x="235" y="1113" />
              <mxPoint x="275" y="1113" />
            </Array>
          </mxGeometry>
        </mxCell>
        <mxCell id="CRPaWPTZXYbFd5-qlrQ4-97" value="" style="endArrow=none;dashed=1;html=1;dashPattern=1 3;strokeWidth=2;rounded=0;" edge="1" parent="WIyWlLk6GJQsqaUBKTNV-1">
          <mxGeometry width="50" height="50" relative="1" as="geometry">
            <mxPoint x="275" y="1114" as="sourcePoint" />
            <mxPoint x="275" y="1094" as="targetPoint" />
          </mxGeometry>
        </mxCell>
        <mxCell id="CRPaWPTZXYbFd5-qlrQ4-98" value="" style="endArrow=none;dashed=1;html=1;dashPattern=1 3;strokeWidth=2;rounded=0;" edge="1" parent="WIyWlLk6GJQsqaUBKTNV-1">
          <mxGeometry width="50" height="50" relative="1" as="geometry">
            <mxPoint x="155" y="1114" as="sourcePoint" />
            <mxPoint x="155" y="1094" as="targetPoint" />
          </mxGeometry>
        </mxCell>
        <mxCell id="CRPaWPTZXYbFd5-qlrQ4-99" value="Click on download under legacy systems" style="rounded=0;whiteSpace=wrap;html=1;" vertex="1" parent="WIyWlLk6GJQsqaUBKTNV-1">
          <mxGeometry x="156" y="1144" width="129" height="78" as="geometry" />
        </mxCell>
        <mxCell id="CRPaWPTZXYbFd5-qlrQ4-100" value="" style="endArrow=none;dashed=1;html=1;rounded=0;" edge="1" parent="WIyWlLk6GJQsqaUBKTNV-1">
          <mxGeometry width="50" height="50" relative="1" as="geometry">
            <mxPoint x="156" y="1223" as="sourcePoint" />
            <mxPoint x="276" y="1223" as="targetPoint" />
            <Array as="points">
              <mxPoint x="226" y="1223" />
              <mxPoint x="276" y="1223" />
            </Array>
          </mxGeometry>
        </mxCell>
        <mxCell id="CRPaWPTZXYbFd5-qlrQ4-101" value="" style="endArrow=none;dashed=1;html=1;rounded=0;" edge="1" parent="WIyWlLk6GJQsqaUBKTNV-1">
          <mxGeometry width="50" height="50" relative="1" as="geometry">
            <mxPoint x="166" y="1240" as="sourcePoint" />
            <mxPoint x="276" y="1240" as="targetPoint" />
            <Array as="points">
              <mxPoint x="156" y="1240" />
              <mxPoint x="176" y="1240" />
              <mxPoint x="236" y="1240" />
              <mxPoint x="276" y="1240" />
            </Array>
          </mxGeometry>
        </mxCell>
        <mxCell id="CRPaWPTZXYbFd5-qlrQ4-102" value="" style="endArrow=none;dashed=1;html=1;dashPattern=1 3;strokeWidth=2;rounded=0;" edge="1" parent="WIyWlLk6GJQsqaUBKTNV-1">
          <mxGeometry width="50" height="50" relative="1" as="geometry">
            <mxPoint x="276" y="1241" as="sourcePoint" />
            <mxPoint x="276" y="1221" as="targetPoint" />
          </mxGeometry>
        </mxCell>
        <mxCell id="CRPaWPTZXYbFd5-qlrQ4-103" value="" style="endArrow=none;dashed=1;html=1;dashPattern=1 3;strokeWidth=2;rounded=0;" edge="1" parent="WIyWlLk6GJQsqaUBKTNV-1">
          <mxGeometry width="50" height="50" relative="1" as="geometry">
            <mxPoint x="156" y="1241" as="sourcePoint" />
            <mxPoint x="156" y="1221" as="targetPoint" />
          </mxGeometry>
        </mxCell>
        <mxCell id="CRPaWPTZXYbFd5-qlrQ4-104" value="Click activity is used to click on &quot;user option&quot; button" style="rounded=0;whiteSpace=wrap;html=1;" vertex="1" parent="WIyWlLk6GJQsqaUBKTNV-1">
          <mxGeometry x="154" y="1272" width="120" height="60" as="geometry" />
        </mxCell>
        <mxCell id="CRPaWPTZXYbFd5-qlrQ4-105" value="" style="endArrow=none;dashed=1;html=1;rounded=0;" edge="1" parent="WIyWlLk6GJQsqaUBKTNV-1">
          <mxGeometry width="50" height="50" relative="1" as="geometry">
            <mxPoint x="155" y="1336" as="sourcePoint" />
            <mxPoint x="275" y="1336" as="targetPoint" />
            <Array as="points">
              <mxPoint x="225" y="1336" />
              <mxPoint x="275" y="1336" />
            </Array>
          </mxGeometry>
        </mxCell>
        <mxCell id="CRPaWPTZXYbFd5-qlrQ4-106" value="" style="endArrow=none;dashed=1;html=1;rounded=0;" edge="1" parent="WIyWlLk6GJQsqaUBKTNV-1">
          <mxGeometry width="50" height="50" relative="1" as="geometry">
            <mxPoint x="165" y="1353" as="sourcePoint" />
            <mxPoint x="275" y="1353" as="targetPoint" />
            <Array as="points">
              <mxPoint x="155" y="1353" />
              <mxPoint x="175" y="1353" />
              <mxPoint x="235" y="1353" />
              <mxPoint x="275" y="1353" />
            </Array>
          </mxGeometry>
        </mxCell>
        <mxCell id="CRPaWPTZXYbFd5-qlrQ4-107" value="" style="endArrow=none;dashed=1;html=1;dashPattern=1 3;strokeWidth=2;rounded=0;" edge="1" parent="WIyWlLk6GJQsqaUBKTNV-1">
          <mxGeometry width="50" height="50" relative="1" as="geometry">
            <mxPoint x="275" y="1354" as="sourcePoint" />
            <mxPoint x="275" y="1334" as="targetPoint" />
          </mxGeometry>
        </mxCell>
        <mxCell id="CRPaWPTZXYbFd5-qlrQ4-108" value="" style="endArrow=none;dashed=1;html=1;dashPattern=1 3;strokeWidth=2;rounded=0;" edge="1" parent="WIyWlLk6GJQsqaUBKTNV-1">
          <mxGeometry width="50" height="50" relative="1" as="geometry">
            <mxPoint x="155" y="1354" as="sourcePoint" />
            <mxPoint x="155" y="1334" as="targetPoint" />
          </mxGeometry>
        </mxCell>
        <mxCell id="CRPaWPTZXYbFd5-qlrQ4-109" value="Chrome browser" style="text;whiteSpace=wrap;html=1;" vertex="1" parent="WIyWlLk6GJQsqaUBKTNV-1">
          <mxGeometry x="170" y="1092" width="103" height="40" as="geometry" />
        </mxCell>
        <mxCell id="CRPaWPTZXYbFd5-qlrQ4-110" value="Chrome browser" style="text;whiteSpace=wrap;html=1;" vertex="1" parent="WIyWlLk6GJQsqaUBKTNV-1">
          <mxGeometry x="180" y="1218" width="92" height="40" as="geometry" />
        </mxCell>
        <mxCell id="CRPaWPTZXYbFd5-qlrQ4-111" value="Chrome browser" style="text;whiteSpace=wrap;html=1;" vertex="1" parent="WIyWlLk6GJQsqaUBKTNV-1">
          <mxGeometry x="170" y="1332" width="104" height="40" as="geometry" />
        </mxCell>
        <mxCell id="CRPaWPTZXYbFd5-qlrQ4-112" value="" style="rounded=0;html=1;jettySize=auto;orthogonalLoop=1;fontSize=11;endArrow=block;endFill=0;endSize=8;strokeWidth=1;shadow=0;labelBackgroundColor=none;edgeStyle=orthogonalEdgeStyle;" edge="1" parent="WIyWlLk6GJQsqaUBKTNV-1">
          <mxGeometry relative="1" as="geometry">
            <mxPoint x="217" y="1365" as="sourcePoint" />
            <mxPoint x="217" y="1396" as="targetPoint" />
            <Array as="points">
              <mxPoint x="217" y="1355" />
              <mxPoint x="217" y="1355" />
            </Array>
          </mxGeometry>
        </mxCell>
        <mxCell id="CRPaWPTZXYbFd5-qlrQ4-113" value="Click activity is used to click on &quot;download&quot; button under legacy system" style="rounded=0;whiteSpace=wrap;html=1;" vertex="1" parent="WIyWlLk6GJQsqaUBKTNV-1">
          <mxGeometry x="154" y="1518" width="120" height="60" as="geometry" />
        </mxCell>
        <mxCell id="CRPaWPTZXYbFd5-qlrQ4-114" value="" style="endArrow=none;dashed=1;html=1;rounded=0;" edge="1" parent="WIyWlLk6GJQsqaUBKTNV-1">
          <mxGeometry width="50" height="50" relative="1" as="geometry">
            <mxPoint x="154" y="1582" as="sourcePoint" />
            <mxPoint x="274" y="1582" as="targetPoint" />
            <Array as="points">
              <mxPoint x="224" y="1582" />
              <mxPoint x="274" y="1582" />
            </Array>
          </mxGeometry>
        </mxCell>
        <mxCell id="CRPaWPTZXYbFd5-qlrQ4-115" value="" style="endArrow=none;dashed=1;html=1;rounded=0;" edge="1" parent="WIyWlLk6GJQsqaUBKTNV-1">
          <mxGeometry width="50" height="50" relative="1" as="geometry">
            <mxPoint x="164" y="1599" as="sourcePoint" />
            <mxPoint x="274" y="1599" as="targetPoint" />
            <Array as="points">
              <mxPoint x="154" y="1599" />
              <mxPoint x="174" y="1599" />
              <mxPoint x="234" y="1599" />
              <mxPoint x="274" y="1599" />
            </Array>
          </mxGeometry>
        </mxCell>
        <mxCell id="CRPaWPTZXYbFd5-qlrQ4-116" value="" style="endArrow=none;dashed=1;html=1;dashPattern=1 3;strokeWidth=2;rounded=0;" edge="1" parent="WIyWlLk6GJQsqaUBKTNV-1">
          <mxGeometry width="50" height="50" relative="1" as="geometry">
            <mxPoint x="274" y="1600" as="sourcePoint" />
            <mxPoint x="274" y="1580" as="targetPoint" />
          </mxGeometry>
        </mxCell>
        <mxCell id="CRPaWPTZXYbFd5-qlrQ4-117" value="" style="endArrow=none;dashed=1;html=1;dashPattern=1 3;strokeWidth=2;rounded=0;" edge="1" parent="WIyWlLk6GJQsqaUBKTNV-1">
          <mxGeometry width="50" height="50" relative="1" as="geometry">
            <mxPoint x="154" y="1600" as="sourcePoint" />
            <mxPoint x="154" y="1580" as="targetPoint" />
          </mxGeometry>
        </mxCell>
        <mxCell id="CRPaWPTZXYbFd5-qlrQ4-118" value="Click activity is used to click on &quot;Download client and support&quot; button" style="rounded=0;whiteSpace=wrap;html=1;" vertex="1" parent="WIyWlLk6GJQsqaUBKTNV-1">
          <mxGeometry x="155" y="1397" width="120" height="60" as="geometry" />
        </mxCell>
        <mxCell id="CRPaWPTZXYbFd5-qlrQ4-119" value="" style="endArrow=none;dashed=1;html=1;rounded=0;" edge="1" parent="WIyWlLk6GJQsqaUBKTNV-1">
          <mxGeometry width="50" height="50" relative="1" as="geometry">
            <mxPoint x="155" y="1460" as="sourcePoint" />
            <mxPoint x="275" y="1460" as="targetPoint" />
            <Array as="points">
              <mxPoint x="225" y="1460" />
              <mxPoint x="275" y="1460" />
            </Array>
          </mxGeometry>
        </mxCell>
        <mxCell id="CRPaWPTZXYbFd5-qlrQ4-120" value="" style="endArrow=none;dashed=1;html=1;rounded=0;" edge="1" parent="WIyWlLk6GJQsqaUBKTNV-1">
          <mxGeometry width="50" height="50" relative="1" as="geometry">
            <mxPoint x="165" y="1477" as="sourcePoint" />
            <mxPoint x="275" y="1477" as="targetPoint" />
            <Array as="points">
              <mxPoint x="155" y="1477" />
              <mxPoint x="175" y="1477" />
              <mxPoint x="235" y="1477" />
              <mxPoint x="275" y="1477" />
            </Array>
          </mxGeometry>
        </mxCell>
        <mxCell id="CRPaWPTZXYbFd5-qlrQ4-121" value="" style="endArrow=none;dashed=1;html=1;dashPattern=1 3;strokeWidth=2;rounded=0;" edge="1" parent="WIyWlLk6GJQsqaUBKTNV-1">
          <mxGeometry width="50" height="50" relative="1" as="geometry">
            <mxPoint x="275" y="1478" as="sourcePoint" />
            <mxPoint x="275" y="1458" as="targetPoint" />
          </mxGeometry>
        </mxCell>
        <mxCell id="CRPaWPTZXYbFd5-qlrQ4-122" value="" style="endArrow=none;dashed=1;html=1;dashPattern=1 3;strokeWidth=2;rounded=0;" edge="1" parent="WIyWlLk6GJQsqaUBKTNV-1">
          <mxGeometry width="50" height="50" relative="1" as="geometry">
            <mxPoint x="155" y="1478" as="sourcePoint" />
            <mxPoint x="155" y="1458" as="targetPoint" />
          </mxGeometry>
        </mxCell>
        <mxCell id="CRPaWPTZXYbFd5-qlrQ4-123" value="" style="rounded=0;html=1;jettySize=auto;orthogonalLoop=1;fontSize=11;endArrow=block;endFill=0;endSize=8;strokeWidth=1;shadow=0;labelBackgroundColor=none;edgeStyle=orthogonalEdgeStyle;" edge="1" parent="WIyWlLk6GJQsqaUBKTNV-1">
          <mxGeometry relative="1" as="geometry">
            <mxPoint x="218" y="1486" as="sourcePoint" />
            <mxPoint x="218" y="1517" as="targetPoint" />
            <Array as="points">
              <mxPoint x="218" y="1476" />
              <mxPoint x="218" y="1476" />
            </Array>
          </mxGeometry>
        </mxCell>
        <mxCell id="CRPaWPTZXYbFd5-qlrQ4-124" value="Click on &quot;log out&quot;" style="rounded=0;whiteSpace=wrap;html=1;" vertex="1" parent="WIyWlLk6GJQsqaUBKTNV-1">
          <mxGeometry x="155" y="1640" width="120" height="60" as="geometry" />
        </mxCell>
        <mxCell id="CRPaWPTZXYbFd5-qlrQ4-125" value="" style="endArrow=none;dashed=1;html=1;rounded=0;" edge="1" parent="WIyWlLk6GJQsqaUBKTNV-1">
          <mxGeometry width="50" height="50" relative="1" as="geometry">
            <mxPoint x="155" y="1704" as="sourcePoint" />
            <mxPoint x="275" y="1704" as="targetPoint" />
            <Array as="points">
              <mxPoint x="225" y="1704" />
              <mxPoint x="275" y="1704" />
            </Array>
          </mxGeometry>
        </mxCell>
        <mxCell id="CRPaWPTZXYbFd5-qlrQ4-126" value="" style="endArrow=none;dashed=1;html=1;rounded=0;" edge="1" parent="WIyWlLk6GJQsqaUBKTNV-1">
          <mxGeometry width="50" height="50" relative="1" as="geometry">
            <mxPoint x="165" y="1721" as="sourcePoint" />
            <mxPoint x="275" y="1721" as="targetPoint" />
            <Array as="points">
              <mxPoint x="155" y="1721" />
              <mxPoint x="175" y="1721" />
              <mxPoint x="235" y="1721" />
              <mxPoint x="275" y="1721" />
            </Array>
          </mxGeometry>
        </mxCell>
        <mxCell id="CRPaWPTZXYbFd5-qlrQ4-127" value="" style="endArrow=none;dashed=1;html=1;dashPattern=1 3;strokeWidth=2;rounded=0;" edge="1" parent="WIyWlLk6GJQsqaUBKTNV-1">
          <mxGeometry width="50" height="50" relative="1" as="geometry">
            <mxPoint x="275" y="1722" as="sourcePoint" />
            <mxPoint x="275" y="1702" as="targetPoint" />
          </mxGeometry>
        </mxCell>
        <mxCell id="CRPaWPTZXYbFd5-qlrQ4-128" value="" style="endArrow=none;dashed=1;html=1;dashPattern=1 3;strokeWidth=2;rounded=0;" edge="1" parent="WIyWlLk6GJQsqaUBKTNV-1">
          <mxGeometry width="50" height="50" relative="1" as="geometry">
            <mxPoint x="155" y="1722" as="sourcePoint" />
            <mxPoint x="155" y="1702" as="targetPoint" />
          </mxGeometry>
        </mxCell>
        <mxCell id="CRPaWPTZXYbFd5-qlrQ4-129" value="" style="rounded=0;html=1;jettySize=auto;orthogonalLoop=1;fontSize=11;endArrow=block;endFill=0;endSize=8;strokeWidth=1;shadow=0;labelBackgroundColor=none;edgeStyle=orthogonalEdgeStyle;" edge="1" parent="WIyWlLk6GJQsqaUBKTNV-1">
          <mxGeometry relative="1" as="geometry">
            <mxPoint x="220" y="1608" as="sourcePoint" />
            <mxPoint x="220" y="1639" as="targetPoint" />
            <Array as="points">
              <mxPoint x="220" y="1598" />
              <mxPoint x="220" y="1598" />
            </Array>
          </mxGeometry>
        </mxCell>
        <mxCell id="CRPaWPTZXYbFd5-qlrQ4-130" value="Chrome browser" style="text;whiteSpace=wrap;html=1;" vertex="1" parent="WIyWlLk6GJQsqaUBKTNV-1">
          <mxGeometry x="180" y="1455" width="105" height="40" as="geometry" />
        </mxCell>
        <mxCell id="CRPaWPTZXYbFd5-qlrQ4-131" value="Chrome browser" style="text;whiteSpace=wrap;html=1;" vertex="1" parent="WIyWlLk6GJQsqaUBKTNV-1">
          <mxGeometry x="180" y="1579" width="105" height="40" as="geometry" />
        </mxCell>
        <mxCell id="CRPaWPTZXYbFd5-qlrQ4-132" value="" style="endArrow=classic;html=1;rounded=0;exitX=0.5;exitY=1;exitDx=0;exitDy=0;" edge="1" parent="WIyWlLk6GJQsqaUBKTNV-1">
          <mxGeometry width="50" height="50" relative="1" as="geometry">
            <mxPoint x="216" y="1114" as="sourcePoint" />
            <mxPoint x="216" y="1144" as="targetPoint" />
          </mxGeometry>
        </mxCell>
        <mxCell id="CRPaWPTZXYbFd5-qlrQ4-133" value="" style="endArrow=classic;html=1;rounded=0;exitX=0.5;exitY=1;exitDx=0;exitDy=0;" edge="1" parent="WIyWlLk6GJQsqaUBKTNV-1">
          <mxGeometry width="50" height="50" relative="1" as="geometry">
            <mxPoint x="218" y="1241" as="sourcePoint" />
            <mxPoint x="218" y="1271" as="targetPoint" />
          </mxGeometry>
        </mxCell>
        <mxCell id="CRPaWPTZXYbFd5-qlrQ4-134" value="Yes" style="edgeLabel;html=1;align=center;verticalAlign=middle;resizable=0;points=[];" vertex="1" connectable="0" parent="CRPaWPTZXYbFd5-qlrQ4-133">
          <mxGeometry x="-0.3556" relative="1" as="geometry">
            <mxPoint x="10" as="offset" />
          </mxGeometry>
        </mxCell>
        <mxCell id="CRPaWPTZXYbFd5-qlrQ4-135" value="Close the browser" style="rounded=0;whiteSpace=wrap;html=1;" vertex="1" parent="WIyWlLk6GJQsqaUBKTNV-1">
          <mxGeometry x="158" y="1762" width="120" height="60" as="geometry" />
        </mxCell>
        <mxCell id="CRPaWPTZXYbFd5-qlrQ4-136" value="" style="endArrow=none;dashed=1;html=1;rounded=0;" edge="1" parent="WIyWlLk6GJQsqaUBKTNV-1">
          <mxGeometry width="50" height="50" relative="1" as="geometry">
            <mxPoint x="159" y="1826" as="sourcePoint" />
            <mxPoint x="279" y="1826" as="targetPoint" />
            <Array as="points">
              <mxPoint x="229" y="1826" />
              <mxPoint x="279" y="1826" />
            </Array>
          </mxGeometry>
        </mxCell>
        <mxCell id="CRPaWPTZXYbFd5-qlrQ4-137" value="" style="endArrow=none;dashed=1;html=1;rounded=0;" edge="1" parent="WIyWlLk6GJQsqaUBKTNV-1">
          <mxGeometry width="50" height="50" relative="1" as="geometry">
            <mxPoint x="169" y="1843" as="sourcePoint" />
            <mxPoint x="279" y="1843" as="targetPoint" />
            <Array as="points">
              <mxPoint x="159" y="1843" />
              <mxPoint x="179" y="1843" />
              <mxPoint x="239" y="1843" />
              <mxPoint x="279" y="1843" />
            </Array>
          </mxGeometry>
        </mxCell>
        <mxCell id="CRPaWPTZXYbFd5-qlrQ4-138" value="" style="endArrow=none;dashed=1;html=1;dashPattern=1 3;strokeWidth=2;rounded=0;" edge="1" parent="WIyWlLk6GJQsqaUBKTNV-1">
          <mxGeometry width="50" height="50" relative="1" as="geometry">
            <mxPoint x="279" y="1844" as="sourcePoint" />
            <mxPoint x="279" y="1824" as="targetPoint" />
          </mxGeometry>
        </mxCell>
        <mxCell id="CRPaWPTZXYbFd5-qlrQ4-139" value="" style="endArrow=none;dashed=1;html=1;dashPattern=1 3;strokeWidth=2;rounded=0;" edge="1" parent="WIyWlLk6GJQsqaUBKTNV-1">
          <mxGeometry width="50" height="50" relative="1" as="geometry">
            <mxPoint x="159" y="1844" as="sourcePoint" />
            <mxPoint x="159" y="1824" as="targetPoint" />
          </mxGeometry>
        </mxCell>
        <mxCell id="CRPaWPTZXYbFd5-qlrQ4-141" value="Chrome browser" style="text;whiteSpace=wrap;html=1;" vertex="1" parent="WIyWlLk6GJQsqaUBKTNV-1">
          <mxGeometry x="186" y="1698" width="100" height="40" as="geometry" />
        </mxCell>
        <mxCell id="CRPaWPTZXYbFd5-qlrQ4-142" value="Chrome browser" style="text;whiteSpace=wrap;html=1;" vertex="1" parent="WIyWlLk6GJQsqaUBKTNV-1">
          <mxGeometry x="182" y="1822" width="100" height="40" as="geometry" />
        </mxCell>
        <mxCell id="CRPaWPTZXYbFd5-qlrQ4-143" value="" style="rounded=0;html=1;jettySize=auto;orthogonalLoop=1;fontSize=11;endArrow=block;endFill=0;endSize=8;strokeWidth=1;shadow=0;labelBackgroundColor=none;edgeStyle=orthogonalEdgeStyle;" edge="1" parent="WIyWlLk6GJQsqaUBKTNV-1">
          <mxGeometry relative="1" as="geometry">
            <mxPoint x="220" y="1731" as="sourcePoint" />
            <mxPoint x="220" y="1762" as="targetPoint" />
            <Array as="points">
              <mxPoint x="220" y="1721" />
              <mxPoint x="220" y="1721" />
            </Array>
          </mxGeometry>
        </mxCell>
        <mxCell id="CRPaWPTZXYbFd5-qlrQ4-144" value="" style="rounded=0;html=1;jettySize=auto;orthogonalLoop=1;fontSize=11;endArrow=block;endFill=0;endSize=8;strokeWidth=1;shadow=0;labelBackgroundColor=none;edgeStyle=orthogonalEdgeStyle;" edge="1" parent="WIyWlLk6GJQsqaUBKTNV-1">
          <mxGeometry relative="1" as="geometry">
            <mxPoint x="220" y="1855" as="sourcePoint" />
            <mxPoint x="220" y="1886" as="targetPoint" />
            <Array as="points">
              <mxPoint x="220" y="1845" />
              <mxPoint x="220" y="1845" />
            </Array>
          </mxGeometry>
        </mxCell>
        <mxCell id="CRPaWPTZXYbFd5-qlrQ4-145" value="End" style="rounded=1;whiteSpace=wrap;html=1;fontSize=12;glass=0;strokeWidth=1;shadow=0;arcSize=45;" vertex="1" parent="WIyWlLk6GJQsqaUBKTNV-1">
          <mxGeometry x="159" y="1888" width="120" height="40" as="geometry" />
        </mxCell>
        <mxCell id="CRPaWPTZXYbFd5-qlrQ4-148" value="Key in the username and password" style="rounded=0;whiteSpace=wrap;html=1;" vertex="1" parent="WIyWlLk6GJQsqaUBKTNV-1">
          <mxGeometry x="158" y="178" width="120" height="50" as="geometry" />
        </mxCell>
        <mxCell id="CRPaWPTZXYbFd5-qlrQ4-149" value="" style="endArrow=none;dashed=1;html=1;rounded=0;" edge="1" parent="WIyWlLk6GJQsqaUBKTNV-1">
          <mxGeometry width="50" height="50" relative="1" as="geometry">
            <mxPoint x="161" y="231" as="sourcePoint" />
            <mxPoint x="281" y="231" as="targetPoint" />
            <Array as="points">
              <mxPoint x="231" y="231" />
              <mxPoint x="281" y="231" />
            </Array>
          </mxGeometry>
        </mxCell>
        <mxCell id="CRPaWPTZXYbFd5-qlrQ4-150" value="" style="endArrow=none;dashed=1;html=1;rounded=0;" edge="1" parent="WIyWlLk6GJQsqaUBKTNV-1">
          <mxGeometry width="50" height="50" relative="1" as="geometry">
            <mxPoint x="171" y="248" as="sourcePoint" />
            <mxPoint x="281" y="248" as="targetPoint" />
            <Array as="points">
              <mxPoint x="161" y="248" />
              <mxPoint x="181" y="248" />
              <mxPoint x="241" y="248" />
              <mxPoint x="281" y="248" />
            </Array>
          </mxGeometry>
        </mxCell>
        <mxCell id="CRPaWPTZXYbFd5-qlrQ4-151" value="" style="endArrow=none;dashed=1;html=1;dashPattern=1 3;strokeWidth=2;rounded=0;" edge="1" parent="WIyWlLk6GJQsqaUBKTNV-1">
          <mxGeometry width="50" height="50" relative="1" as="geometry">
            <mxPoint x="281" y="249" as="sourcePoint" />
            <mxPoint x="281" y="229" as="targetPoint" />
          </mxGeometry>
        </mxCell>
        <mxCell id="CRPaWPTZXYbFd5-qlrQ4-152" value="" style="endArrow=none;dashed=1;html=1;dashPattern=1 3;strokeWidth=2;rounded=0;" edge="1" parent="WIyWlLk6GJQsqaUBKTNV-1">
          <mxGeometry width="50" height="50" relative="1" as="geometry">
            <mxPoint x="161" y="249" as="sourcePoint" />
            <mxPoint x="161" y="229" as="targetPoint" />
          </mxGeometry>
        </mxCell>
        <mxCell id="CRPaWPTZXYbFd5-qlrQ4-153" value="Chrome browser" style="text;html=1;align=center;verticalAlign=middle;resizable=0;points=[];autosize=1;strokeColor=none;fillColor=none;" vertex="1" parent="WIyWlLk6GJQsqaUBKTNV-1">
          <mxGeometry x="147" y="225" width="110" height="30" as="geometry" />
        </mxCell>
        <mxCell id="CRPaWPTZXYbFd5-qlrQ4-154" value="" style="rounded=0;html=1;jettySize=auto;orthogonalLoop=1;fontSize=11;endArrow=block;endFill=0;endSize=8;strokeWidth=1;shadow=0;labelBackgroundColor=none;edgeStyle=orthogonalEdgeStyle;" edge="1" parent="WIyWlLk6GJQsqaUBKTNV-1">
          <mxGeometry relative="1" as="geometry">
            <mxPoint x="221" y="180" as="targetPoint" />
            <mxPoint x="222" y="150" as="sourcePoint" />
          </mxGeometry>
        </mxCell>
      </root>
    </mxGraphModel>
  </diagram>
</mxfile>
